<?xml version="1.0" encoding="UTF-8" standalone="no"?>
<svg
   xmlns:dc="http://purl.org/dc/elements/1.1/"
   xmlns:cc="http://creativecommons.org/ns#"
   xmlns:rdf="http://www.w3.org/1999/02/22-rdf-syntax-ns#"
   xmlns:svg="http://www.w3.org/2000/svg"
   xmlns="http://www.w3.org/2000/svg"
   xmlns:sodipodi="http://sodipodi.sourceforge.net/DTD/sodipodi-0.dtd"
   xmlns:inkscape="http://www.inkscape.org/namespaces/inkscape"
   width="57mm"
   height="50mm"
   viewBox="0 0 57 50"
   version="1.1"
   id="svg1625"
   inkscape:version="1.0.2 (e86c870879, 2021-01-15)"
   sodipodi:docname="logo.svg"
   inkscape:export-filename="/home/bjs/bitmap.png"
   inkscape:export-xdpi="600.07196"
   inkscape:export-ydpi="600.07196">
  <defs
     id="defs1619">
    <inkscape:path-effect
       effect="fillet_chamfer"
       id="path-effect1595"
       is_visible="true"
       lpeversion="1"
       satellites_param="F,0,0,1,0,6.6145833,0,1 @ F,0,0,1,0,6.6145833,0,1 @ F,0,0,1,0,6.6145833,0,1 @ F,0,0,1,0,6.6145833,0,1 @ F,0,0,1,0,6.6145833,0,1 @ F,0,0,1,0,6.6145833,0,1"
       unit="px"
       method="auto"
       mode="F"
       radius="25"
       chamfer_steps="1"
       flexible="false"
       use_knot_distance="true"
       apply_no_radius="true"
       apply_with_radius="true"
       only_selected="false"
       hide_knots="false" />
    <inkscape:path-effect
       effect="fillet_chamfer"
       id="path-effect1572"
       is_visible="true"
       lpeversion="1"
       satellites_param="F,0,0,1,0,6.6145833,0,1 @ F,0,0,1,0,6.6145833,0,1 @ F,0,0,1,0,6.6145833,0,1 @ F,0,0,1,0,6.6145833,0,1 @ F,0,0,1,0,6.6145833,0,1 @ F,0,0,1,0,6.6145833,0,1"
       unit="px"
       method="auto"
       mode="F"
       radius="25"
       chamfer_steps="1"
       flexible="false"
       use_knot_distance="true"
       apply_no_radius="true"
       apply_with_radius="true"
       only_selected="false"
       hide_knots="false" />
    <inkscape:path-effect
       effect="fillet_chamfer"
       id="path-effect1574"
       is_visible="true"
       lpeversion="1"
       satellites_param="F,0,0,1,0,5.2916667,0,1 @ F,0,0,1,0,5.2916667,0,1 @ F,0,0,1,0,5.2916667,0,1 @ F,0,0,1,0,5.2916667,0,1"
       unit="px"
       method="auto"
       mode="F"
       radius="20"
       chamfer_steps="1"
       flexible="false"
       use_knot_distance="true"
       apply_no_radius="true"
       apply_with_radius="true"
       only_selected="false"
       hide_knots="false" />
    <inkscape:path-effect
       effect="fillet_chamfer"
       id="path-effect1576"
       is_visible="true"
       lpeversion="1"
       satellites_param="F,0,0,1,0,5.2916667,0,1 @ F,0,0,1,0,5.2916667,0,1 @ F,0,0,1,0,5.2916667,0,1 @ F,0,0,1,0,5.2916667,0,1"
       unit="px"
       method="auto"
       mode="F"
       radius="20"
       chamfer_steps="1"
       flexible="false"
       use_knot_distance="true"
       apply_no_radius="true"
       apply_with_radius="true"
       only_selected="false"
       hide_knots="false" />
    <inkscape:path-effect
       effect="fillet_chamfer"
       id="path-effect1578"
       is_visible="true"
       lpeversion="1"
       satellites_param="F,0,0,1,0,5.2916667,0,1 @ F,0,0,1,0,5.2916667,0,1 @ F,0,0,1,0,5.2916667,0,1 @ F,0,0,1,0,5.2916667,0,1"
       unit="px"
       method="auto"
       mode="F"
       radius="20"
       chamfer_steps="1"
       flexible="false"
       use_knot_distance="true"
       apply_no_radius="true"
       apply_with_radius="true"
       only_selected="false"
       hide_knots="false" />
    <inkscape:path-effect
       effect="fillet_chamfer"
       id="path-effect1580"
       is_visible="true"
       lpeversion="1"
       satellites_param="F,0,0,1,0,6.6145833,0,1 @ F,0,0,1,0,6.6145833,0,1 @ F,0,0,1,0,6.6145833,0,1 @ F,0,0,1,0,6.6145833,0,1 @ F,0,0,1,0,6.6145833,0,1 @ F,0,0,1,0,6.6145833,0,1"
       unit="px"
       method="auto"
       mode="F"
       radius="25"
       chamfer_steps="1"
       flexible="false"
       use_knot_distance="true"
       apply_no_radius="true"
       apply_with_radius="true"
       only_selected="false"
       hide_knots="false" />
  </defs>
  <sodipodi:namedview
     id="base"
     pagecolor="#ffffff"
     bordercolor="#666666"
     borderopacity="1.0"
     inkscape:pageopacity="0.0"
     inkscape:pageshadow="2"
     inkscape:zoom="2.8"
     inkscape:cx="184.85444"
     inkscape:cy="100.0973"
     inkscape:document-units="mm"
     inkscape:current-layer="layer1"
     inkscape:document-rotation="0"
     showgrid="false"
     inkscape:window-width="1920"
     inkscape:window-height="1043"
     inkscape:window-x="1920"
     inkscape:window-y="0"
     inkscape:window-maximized="1" />
  <metadata
     id="metadata1622">
    <rdf:RDF>
      <cc:Work
         rdf:about="">
        <dc:format>image/svg+xml</dc:format>
        <dc:type
           rdf:resource="http://purl.org/dc/dcmitype/StillImage" />
        <dc:title></dc:title>
      </cc:Work>
    </rdf:RDF>
  </metadata>
  <g
     inkscape:label="Layer 1"
     inkscape:groupmode="layer"
     id="layer1">
    <g
       id="g2195"
       transform="translate(-36.413189,-140.23936)">
      <g
         id="g1617">
        <path
           style="fill:#100e13;fill-opacity:0.160383;stroke:none;stroke-width:5;stroke-linecap:round;stroke-linejoin:round;stroke-miterlimit:4;stroke-dasharray:none;stroke-opacity:1"
           d="m 89.913189,174.58406 v -11.77084 a 9.7699576,9.7699576 55.900705 0 0 -6.141486,-9.07117 l -12.717028,-5.08682 a 16.536458,16.536458 0 0 0 -12.282972,0 l -12.717028,5.08682 a 9.7699576,9.7699576 124.0993 0 0 -6.141486,9.07117 v 11.77084 a 9.7699576,9.7699576 55.900705 0 0 6.141486,9.07117 l 12.717028,5.08682 a 16.536458,16.536458 -180 0 0 12.282972,0 l 12.717028,-5.08682 a 9.7699576,9.7699576 124.0993 0 0 6.141486,-9.07117 z"
           id="path1593"
           inkscape:path-effect="#path-effect1595"
           inkscape:original-d="m 89.913189,181.19864 v -25 l -25,-10 -25,10 v 25 l 25,10 z" />
        <path
           style="fill:none;fill-opacity:1;stroke:#000000;stroke-width:5;stroke-linecap:round;stroke-linejoin:round;stroke-miterlimit:4;stroke-dasharray:none;stroke-opacity:1"
           d="m 89.913189,170.3507 v -11.77084 a 9.7699576,9.7699576 55.900705 0 0 -6.141486,-9.07117 l -12.717028,-5.08682 a 16.536458,16.536458 0 0 0 -12.282972,0 l -12.717028,5.08682 a 9.7699576,9.7699576 124.0993 0 0 -6.141486,9.07117 v 11.77084 a 9.7699576,9.7699576 55.900705 0 0 6.141486,9.07117 l 12.717028,5.08682 a 16.536458,16.536458 -180 0 0 12.282972,0 l 12.717028,-5.08682 a 9.7699576,9.7699576 124.0993 0 0 6.141486,-9.07117 z"
           id="path1558"
           inkscape:path-effect="#path-effect1572"
           inkscape:original-d="m 89.913189,176.96528 v -25 l -25,-10 -25,10 v 25 l 25,10 z" />
        <path
           style="fill:#5ac967;fill-opacity:1;stroke:#ffffff;stroke-width:3;stroke-linecap:butt;stroke-linejoin:miter;stroke-miterlimit:4;stroke-dasharray:none;stroke-opacity:1"
           d="M 69.826378,160 85,153.93056 a 3.5826328,3.5826328 34.099295 0 1 4.913189,3.32639 v 14.41666 A 7.8159661,7.8159661 124.0993 0 1 85,178.93056 L 69.826378,185 a 3.5826328,3.5826328 34.099295 0 1 -4.913189,-3.32639 V 167.25695 A 7.8159661,7.8159661 124.0993 0 1 69.826378,160 Z"
           id="path1560"
           inkscape:path-effect="#path-effect1574"
           inkscape:original-d="m 64.913189,161.96528 25,-10 v 25 l -25,10 z" />
        <path
           style="fill:#597e2e;fill-opacity:1;stroke:#ffffff;stroke-width:2.5;stroke-linecap:butt;stroke-linejoin:miter;stroke-miterlimit:4;stroke-dasharray:none;stroke-opacity:1"
           d="m 60,160 -15.173622,-6.06944 a 3.5826328,3.5826328 145.9007 0 0 -4.913189,3.32639 v 14.41666 a 7.8159661,7.8159661 55.900705 0 0 4.913189,7.25695 L 60,185 a 3.5826328,3.5826328 145.9007 0 0 4.913189,-3.32639 V 167.25695 A 7.8159661,7.8159661 55.900705 0 0 60,160 Z"
           id="path1562"
           inkscape:path-effect="#path-effect1576"
           inkscape:original-d="m 64.913189,161.96528 -25,-10 v 25 l 25,10 z" />
        <path
           style="fill:#9ef15b;fill-opacity:1;stroke:#ffffff;stroke-width:3;stroke-linecap:butt;stroke-linejoin:miter;stroke-miterlimit:4;stroke-dasharray:none;stroke-opacity:1"
           d="M 60,143.93056 44.826378,150 a 2.1166667,2.1166667 90 0 0 0,3.93056 L 60,160 a 13.229167,13.229167 0 0 0 9.826378,0 L 85,153.93056 A 2.1166667,2.1166667 90 0 0 85,150 l -15.173622,-6.06944 a 13.229167,13.229167 0 0 0 -9.826378,0 z"
           id="path1564"
           inkscape:path-effect="#path-effect1578"
           inkscape:original-d="m 64.913189,141.96528 -25,10 25,10 25,-10 z" />
        <path
           style="fill:none;fill-opacity:1;stroke:#ffffff;stroke-width:3;stroke-linecap:round;stroke-linejoin:round;stroke-miterlimit:4;stroke-dasharray:none;stroke-opacity:1"
           d="m 89.913189,170.3507 v -11.77084 a 9.7699576,9.7699576 55.900705 0 0 -6.141486,-9.07117 l -12.717028,-5.08682 a 16.536458,16.536458 0 0 0 -12.282972,0 l -12.717028,5.08682 a 9.7699576,9.7699576 124.0993 0 0 -6.141486,9.07117 v 11.77084 a 9.7699576,9.7699576 55.900705 0 0 6.141486,9.07117 l 12.717028,5.08682 a 16.536458,16.536458 -180 0 0 12.282972,0 l 12.717028,-5.08682 a 9.7699576,9.7699576 124.0993 0 0 6.141486,-9.07117 z"
           id="path1566"
           inkscape:path-effect="#path-effect1580"
           inkscape:original-d="m 89.913189,176.96528 v -25 l -25,-10 -25,10 v 25 l 25,10 z" />
      </g>
    </g>
  </g>
</svg>
